# xmcd
#
# Track frame offsets:
#	150
#	15732
#	34267
#	50280
#	71960
#	92247
#	122945
#	138442
#	149695
#	168472
#	187890
#	210702
#	236557
#	254830
#	271077
#	290762
#	307412
#	329032
#
# Disc length: 4610 seconds
#
# Revision: 1
# Processed by: cddbd v1.5.1PL0 Copyright (c) Steve Scherf et al.
# Submitted via: CDex 1.50Beta5
#
DISCID=2d120012
DTITLE=薔薇の十字架 - ラヴ・イン・ローズ [CD2]
DYEAR=1900
DGENRE=Pop
TTITLE0=二人の絆
TTITLE1=ロマンティック
TTITLE2=ロスト・イン・ユア・アイズ
TTITLE3=もう話したくない
TTITLE4=風立ちぬ
TTITLE5=オン・ザ・ビーチ
TTITLE6=ロング・トレイン・ランニン
TTITLE7=愛の別れ道
TTITLE8=名前のない馬
TTITLE9=うつろな愛
TTITLE10=ユー・メイク・ミー・フィール・ブランド・ニュー（誓い）
TTITLE11=アンチェインド・メロディー
TTITLE12=天使の嘆息
TTITLE13=あまねく愛で
TTITLE14=エイント・ノーバディ
TTITLE15=ストロング・イナフ
TTITLE16=クレイジー
TTITLE17=Love
EXTD=
EXTT0=
EXTT1=
EXTT2=
EXTT3=
EXTT4=
EXTT5=
EXTT6=
EXTT7=
EXTT8=
EXTT9=
EXTT10=
EXTT11=
EXTT12=
EXTT13=
EXTT14=
EXTT15=
EXTT16=
EXTT17=
PLAYORDER=
